<?xml version="1.0" encoding="utf-8"?>
<!-- Generator: Adobe Illustrator 25.4.1, SVG Export Plug-In . SVG Version: 6.00 Build 0)  -->
<svg version="1.1" id="Camada_1" xmlns="http://www.w3.org/2000/svg" xmlns:xlink="http://www.w3.org/1999/xlink" x="0px" y="0px"
	 viewBox="0 0 306.9 58.6" style="enable-background:new 0 0 306.9 58.6;" xml:space="preserve">
<style type="text/css">
	.st0{fill:#FFFFFF;}
</style>
<g>
	<path class="st0" d="M1.5,44v-43h7.9v43H1.5z"/>
	<path class="st0" d="M29.7,13.7c2.3,0,4.4,0.4,6.3,1.2c1.9,0.8,3.5,1.9,4.9,3.2c1.4,1.4,2.5,3,3.2,5c0.8,1.9,1.2,4,1.2,6.3
		c0,2.3-0.4,4.4-1.2,6.3c-0.8,1.9-1.9,3.6-3.2,4.9c-1.4,1.4-3,2.5-4.9,3.2c-1.9,0.8-4,1.2-6.3,1.2c-2.3,0-4.4-0.4-6.3-1.2
		c-1.9-0.8-3.5-1.9-4.9-3.2c-1.4-1.4-2.5-3-3.2-4.9c-0.8-1.9-1.2-4-1.2-6.3c0-2.3,0.4-4.4,1.2-6.3c0.8-1.9,1.9-3.6,3.2-5
		c1.4-1.4,3-2.5,4.9-3.2C25.4,14.1,27.4,13.7,29.7,13.7z M29.7,37.7c1,0,2-0.2,2.9-0.6c0.9-0.4,1.8-0.9,2.5-1.6
		c0.7-0.7,1.3-1.6,1.7-2.6c0.4-1,0.6-2.2,0.6-3.5c0-1.3-0.2-2.5-0.6-3.5c-0.4-1-1-1.9-1.7-2.6c-0.7-0.7-1.6-1.3-2.5-1.6
		c-0.9-0.4-1.9-0.6-2.9-0.6c-1,0-2,0.2-2.9,0.6c-0.9,0.4-1.7,0.9-2.5,1.6c-0.7,0.7-1.3,1.6-1.7,2.6c-0.4,1-0.6,2.2-0.6,3.5
		c0,1.3,0.2,2.5,0.6,3.5c0.4,1,1,1.9,1.7,2.6c0.7,0.7,1.5,1.3,2.5,1.6C27.7,37.5,28.7,37.7,29.7,37.7z"/>
	<path class="st0" d="M64.3,13.7c2.3,0,4.4,0.4,6.3,1.2c1.9,0.8,3.5,1.9,4.9,3.2c1.4,1.4,2.5,3,3.2,5c0.8,1.9,1.2,4,1.2,6.3
		c0,2.3-0.4,4.4-1.2,6.3c-0.8,1.9-1.9,3.6-3.2,4.9c-1.4,1.4-3,2.5-4.9,3.2c-1.9,0.8-4,1.2-6.3,1.2c-2.3,0-4.4-0.4-6.3-1.2
		c-1.9-0.8-3.5-1.9-4.9-3.2c-1.4-1.4-2.5-3-3.2-4.9c-0.8-1.9-1.2-4-1.2-6.3c0-2.3,0.4-4.4,1.2-6.3c0.8-1.9,1.9-3.6,3.2-5
		c1.4-1.4,3-2.5,4.9-3.2C59.9,14.1,62,13.7,64.3,13.7z M64.3,37.7c1,0,2-0.2,2.9-0.6c0.9-0.4,1.8-0.9,2.5-1.6
		c0.7-0.7,1.3-1.6,1.7-2.6c0.4-1,0.6-2.2,0.6-3.5c0-1.3-0.2-2.5-0.6-3.5c-0.4-1-1-1.9-1.7-2.6c-0.7-0.7-1.6-1.3-2.5-1.6
		c-0.9-0.4-1.9-0.6-2.9-0.6c-1,0-2,0.2-2.9,0.6c-0.9,0.4-1.7,0.9-2.5,1.6c-0.7,0.7-1.3,1.6-1.7,2.6c-0.4,1-0.6,2.2-0.6,3.5
		c0,1.3,0.2,2.5,0.6,3.5c0.4,1,1,1.9,1.7,2.6c0.7,0.7,1.5,1.3,2.5,1.6C62.3,37.5,63.2,37.7,64.3,37.7z"/>
	<path class="st0" d="M84.4,14.6h7.4v3.5h0.5c0.7-1.2,1.8-2.3,3.4-3.2c1.5-0.9,3.4-1.3,5.6-1.3c1.9,0,3.7,0.4,5.4,1.2
		c1.7,0.8,3.2,1.9,4.5,3.2c1.3,1.4,2.3,3,3.1,5c0.8,1.9,1.1,4,1.1,6.3c0,2.3-0.4,4.4-1.1,6.3c-0.8,1.9-1.8,3.6-3.1,4.9
		c-1.3,1.4-2.8,2.5-4.5,3.2c-1.7,0.8-3.5,1.2-5.4,1.2c-2.2,0-4.1-0.4-5.6-1.3c-1.5-0.9-2.6-1.9-3.4-3.2h-0.5l0.5,4.2V57h-7.9V14.6z
		 M99.6,37.7c1,0,2-0.2,3-0.6c0.9-0.4,1.8-1,2.5-1.7c0.7-0.7,1.3-1.6,1.7-2.6c0.4-1,0.7-2.2,0.7-3.5c0-1.3-0.2-2.4-0.7-3.5
		c-0.4-1-1-1.9-1.7-2.6c-0.7-0.7-1.6-1.3-2.5-1.7c-0.9-0.4-1.9-0.6-3-0.6c-1,0-2,0.2-3,0.6c-0.9,0.4-1.8,0.9-2.5,1.6
		c-0.7,0.7-1.3,1.6-1.7,2.6c-0.4,1-0.7,2.2-0.7,3.5c0,1.3,0.2,2.5,0.7,3.5c0.4,1,1,1.9,1.7,2.6c0.7,0.7,1.5,1.3,2.5,1.6
		C97.6,37.5,98.6,37.7,99.6,37.7z"/>
	<path class="st0" d="M124.5,10.7c-0.7,0-1.3-0.1-2-0.4c-0.6-0.3-1.2-0.6-1.6-1.1c-0.5-0.5-0.8-1-1.1-1.6c-0.3-0.6-0.4-1.3-0.4-2
		c0-0.7,0.1-1.4,0.4-2c0.3-0.6,0.6-1.1,1.1-1.6c0.5-0.5,1-0.8,1.6-1.1c0.6-0.3,1.3-0.4,2-0.4c1.4,0,2.6,0.5,3.6,1.5
		c1,1,1.5,2.2,1.5,3.6c0,1.4-0.5,2.6-1.5,3.6C127.1,10.2,125.9,10.7,124.5,10.7z M120.6,44V14.6h7.9V44H120.6z"/>
	<path class="st0" d="M143,18.5h0.5c0.9-1.5,2.2-2.6,3.7-3.5c1.6-0.9,3.3-1.3,5.3-1.3c1.8,0,3.5,0.3,4.9,0.9
		c1.4,0.6,2.5,1.5,3.4,2.5c0.9,1.1,1.6,2.4,2,4c0.5,1.5,0.7,3.3,0.7,5.1V44h-7.9V27.2c0-2.1-0.5-3.7-1.4-4.7c-0.9-1-2.3-1.5-4.1-1.5
		c-1.1,0-2,0.2-2.9,0.7c-0.8,0.5-1.5,1.1-2.1,1.9c-0.6,0.8-1,1.7-1.3,2.8c-0.3,1.1-0.4,2.2-0.4,3.4V44h-7.9V14.6h7.4V18.5z"/>
	<path class="st0" d="M183.3,58c-2.1,0-3.9-0.3-5.5-0.8s-3-1.2-4.2-2.1c-1.2-0.9-2.2-1.8-3-2.8c-0.8-1-1.4-2.1-1.7-3.1l7.5-3
		c0.6,1.6,1.5,2.8,2.8,3.6c1.3,0.9,2.7,1.3,4.3,1.3c2.5,0,4.4-0.8,5.9-2.4c1.4-1.6,2.2-3.8,2.2-6.6v-2h-0.5c-0.9,1.3-2.1,2.3-3.6,3
		c-1.5,0.7-3.3,1.1-5.3,1.1c-1.8,0-3.5-0.4-5.1-1.1c-1.7-0.7-3.1-1.7-4.4-3.1c-1.3-1.3-2.3-2.9-3.1-4.8c-0.8-1.9-1.2-3.9-1.2-6.2
		s0.4-4.4,1.2-6.3c0.8-1.9,1.8-3.5,3.1-4.8c1.3-1.3,2.7-2.3,4.4-3.1c1.7-0.7,3.4-1.1,5.1-1.1c2,0,3.8,0.4,5.3,1.1
		c1.5,0.7,2.7,1.8,3.6,3h0.5v-3.2h7.5v27.3c0,2.5-0.4,4.7-1.1,6.7c-0.8,2-1.8,3.7-3.2,5c-1.4,1.4-3,2.4-4.9,3.2
		C187.8,57.6,185.6,58,183.3,58z M183.6,37c1,0,1.9-0.2,2.8-0.5c0.9-0.4,1.8-0.9,2.5-1.6c0.7-0.7,1.3-1.5,1.7-2.5
		c0.4-1,0.7-2.2,0.7-3.4c0-1.3-0.2-2.5-0.7-3.5c-0.4-1-1-1.9-1.7-2.6c-0.7-0.7-1.6-1.2-2.5-1.6c-0.9-0.4-1.9-0.5-2.8-0.5
		c-1,0-1.9,0.2-2.8,0.5c-0.9,0.4-1.7,0.9-2.5,1.6c-0.7,0.7-1.3,1.6-1.7,2.6c-0.4,1-0.7,2.1-0.7,3.4c0,1.3,0.2,2.4,0.7,3.4
		c0.4,1,1,1.8,1.7,2.5c0.7,0.7,1.5,1.2,2.5,1.6C181.7,36.8,182.7,37,183.6,37z"/>
	<path class="st0" d="M205.6,1.1h7.9V14l-0.5,4.2h0.5c0.7-1.2,1.8-2.3,3.4-3.2c1.5-0.9,3.4-1.3,5.6-1.3c1.9,0,3.7,0.4,5.4,1.2
		c1.7,0.8,3.2,1.9,4.5,3.2c1.3,1.4,2.3,3,3.1,5c0.8,1.9,1.1,4,1.1,6.3c0,2.3-0.4,4.4-1.1,6.3c-0.8,1.9-1.8,3.6-3.1,4.9
		c-1.3,1.4-2.8,2.5-4.5,3.2c-1.7,0.8-3.5,1.2-5.4,1.2c-2.2,0-4.1-0.4-5.6-1.3c-1.5-0.9-2.6-1.9-3.4-3.2H213V44h-7.4V1.1z
		 M220.8,37.7c1,0,2-0.2,3-0.6c0.9-0.4,1.8-1,2.5-1.7c0.7-0.7,1.3-1.6,1.7-2.6c0.4-1,0.7-2.2,0.7-3.5c0-1.3-0.2-2.4-0.7-3.5
		c-0.4-1-1-1.9-1.7-2.6c-0.7-0.7-1.6-1.3-2.5-1.7c-0.9-0.4-1.9-0.6-3-0.6c-1,0-2,0.2-3,0.6c-0.9,0.4-1.8,0.9-2.5,1.6
		c-0.7,0.7-1.3,1.6-1.7,2.6c-0.4,1-0.7,2.2-0.7,3.5c0,1.3,0.2,2.5,0.7,3.5c0.4,1,1,1.9,1.7,2.6c0.7,0.7,1.5,1.3,2.5,1.6
		C218.8,37.5,219.8,37.7,220.8,37.7z"/>
	<path class="st0" d="M245.7,10.7c-0.7,0-1.3-0.1-2-0.4c-0.6-0.3-1.2-0.6-1.6-1.1c-0.5-0.5-0.8-1-1.1-1.6c-0.3-0.6-0.4-1.3-0.4-2
		c0-0.7,0.1-1.4,0.4-2c0.3-0.6,0.6-1.1,1.1-1.6c0.5-0.5,1-0.8,1.6-1.1c0.6-0.3,1.3-0.4,2-0.4c1.4,0,2.6,0.5,3.6,1.5
		c1,1,1.5,2.2,1.5,3.6c0,1.4-0.5,2.6-1.5,3.6C248.3,10.2,247.1,10.7,245.7,10.7z M241.8,44V14.6h7.9V44H241.8z"/>
	<path class="st0" d="M259.8,21.4h-5.2v-6.7h5.2v-9h7.9v9h7.2v6.7h-7.2v11.7c0,0.7,0.1,1.4,0.2,1.9c0.1,0.6,0.4,1.1,0.8,1.5
		c0.6,0.7,1.4,1,2.4,1c0.7,0,1.2-0.1,1.6-0.2c0.4-0.1,0.8-0.3,1.1-0.6l2.2,6.9c-0.9,0.4-1.9,0.8-3,1c-1.1,0.2-2.2,0.3-3.5,0.3
		c-1.5,0-2.8-0.2-4-0.7c-1.2-0.5-2.2-1.1-3-1.9c-1.9-1.8-2.8-4.5-2.8-7.8V21.4z"/>
	<path class="st0" d="M292.8,45c-1.9,0-3.6-0.2-5.1-0.7c-1.5-0.5-2.8-1.1-3.9-1.9c-1.1-0.8-2-1.7-2.8-2.7s-1.3-2-1.7-3.1l7-3
		c0.7,1.5,1.6,2.7,2.7,3.4c1.1,0.7,2.4,1.1,3.8,1.1c1.4,0,2.6-0.3,3.4-0.8c0.8-0.5,1.3-1.1,1.3-1.9c0-0.8-0.4-1.4-1-1.9
		c-0.7-0.5-1.9-0.9-3.6-1.4l-4.1-0.9c-0.9-0.2-1.9-0.5-2.9-1c-1-0.4-1.9-1-2.7-1.7c-0.8-0.7-1.5-1.5-2-2.5c-0.5-1-0.8-2.1-0.8-3.4
		c0-1.4,0.3-2.7,0.9-3.8c0.6-1.1,1.5-2.1,2.5-2.9c1.1-0.8,2.3-1.4,3.8-1.8c1.5-0.4,3-0.6,4.7-0.6c2.8,0,5.3,0.6,7.5,1.6
		c2.2,1.1,3.8,2.9,4.9,5.2l-6.8,2.8c-0.6-1.2-1.4-2-2.5-2.5c-1.1-0.5-2.2-0.8-3.2-0.8c-1.1,0-2.1,0.2-2.9,0.7
		c-0.8,0.5-1.3,1.1-1.3,1.8c0,0.7,0.3,1.2,1,1.6c0.7,0.4,1.7,0.8,2.9,1.1l4.5,1.1c3,0.7,5.2,1.9,6.7,3.4c1.5,1.6,2.2,3.5,2.2,5.6
		c0,1.3-0.3,2.5-0.9,3.7c-0.6,1.2-1.5,2.2-2.5,3.1c-1.1,0.9-2.4,1.6-4,2.1C296.4,44.7,294.7,45,292.8,45z"/>
</g>
</svg>
