<?xml version="1.0" encoding="utf-8"?>
<!-- Generator: Adobe Illustrator 25.4.1, SVG Export Plug-In . SVG Version: 6.00 Build 0)  -->
<svg version="1.1" id="Camada_1" xmlns="http://www.w3.org/2000/svg" xmlns:xlink="http://www.w3.org/1999/xlink" x="0px" y="0px"
	 viewBox="0 0 78 31" style="enable-background:new 0 0 78 31;" xml:space="preserve">
<style type="text/css">
	.st0{fill:#FFFFFF;}
</style>
<g>
	<path d="M5.2,29.1c-0.9,0-1.7-0.3-2.4-1c-0.7-0.6-1-1.4-1-2.3c0-0.9,0.3-1.7,1-2.3c0.7-0.6,1.5-0.9,2.4-0.9s1.7,0.3,2.4,0.9
		c0.6,0.6,1,1.4,1,2.3c0,0.9-0.3,1.7-1,2.3C6.9,28.8,6.1,29.1,5.2,29.1z"/>
	<path d="M26.7,26.8h-0.3c-0.5,0.8-1.2,1.5-2.2,2.1c-1,0.6-2.2,0.9-3.7,0.9c-1.2,0-2.4-0.3-3.5-0.8c-1.1-0.5-2.1-1.2-2.9-2.1
		c-0.8-0.9-1.5-2-2-3.2c-0.5-1.2-0.7-2.6-0.7-4.1s0.2-2.8,0.7-4.1c0.5-1.2,1.2-2.3,2-3.2c0.8-0.9,1.8-1.6,2.9-2.1
		c1.1-0.5,2.3-0.8,3.5-0.8c1.5,0,2.7,0.3,3.7,0.9c1,0.6,1.7,1.3,2.2,2.1h0.3l-0.3-2.7V1.3h5.1v27.8h-4.8V26.8z M21.6,25
		c0.7,0,1.3-0.1,1.9-0.4c0.6-0.2,1.1-0.6,1.6-1.1c0.5-0.5,0.8-1,1.1-1.7c0.3-0.7,0.4-1.4,0.4-2.3c0-0.9-0.1-1.6-0.4-2.3
		c-0.3-0.7-0.7-1.2-1.1-1.7c-0.5-0.5-1-0.8-1.6-1.1c-0.6-0.2-1.3-0.4-1.9-0.4c-0.7,0-1.3,0.1-1.9,0.4c-0.6,0.3-1.1,0.6-1.6,1.1
		c-0.5,0.5-0.8,1-1.1,1.7c-0.3,0.7-0.4,1.4-0.4,2.3c0,0.8,0.1,1.6,0.4,2.3c0.3,0.7,0.7,1.2,1.1,1.7c0.5,0.5,1,0.8,1.6,1.1
		C20.3,24.9,21,25,21.6,25z"/>
	<path d="M53.7,24.5c-0.9,1.6-2.1,2.8-3.6,3.8c-1.5,1-3.3,1.4-5.5,1.4c-1.5,0-2.8-0.3-4-0.8c-1.2-0.5-2.3-1.2-3.2-2.1
		c-0.9-0.9-1.6-2-2.1-3.2c-0.5-1.2-0.8-2.6-0.8-4.1c0-1.4,0.2-2.7,0.7-3.9s1.2-2.3,2.1-3.2c0.9-0.9,1.9-1.7,3.1-2.2
		c1.2-0.5,2.5-0.8,4-0.8c1.5,0,2.9,0.3,4.1,0.8c1.2,0.5,2.2,1.2,3,2.1c0.8,0.9,1.4,1.9,1.8,3.2s0.6,2.5,0.6,4c0,0.2,0,0.3,0,0.5
		c0,0.2,0,0.3,0,0.4c0,0.1,0,0.3,0,0.4H39.6c0.1,0.8,0.3,1.4,0.6,2c0.3,0.6,0.7,1,1.2,1.4c0.5,0.4,1,0.6,1.6,0.8
		c0.6,0.2,1.2,0.3,1.7,0.3c1.2,0,2.1-0.3,2.9-0.8c0.8-0.5,1.4-1.2,1.8-2L53.7,24.5z M49.1,17.1c0-0.3-0.1-0.7-0.3-1.1
		c-0.2-0.4-0.5-0.8-0.9-1.2c-0.4-0.4-0.8-0.7-1.4-0.9c-0.6-0.2-1.2-0.3-2-0.3c-1.1,0-2,0.3-2.9,0.9c-0.8,0.6-1.4,1.5-1.7,2.6H49.1z"
		/>
	<path d="M54.9,10.1h5.8l4.7,12.1h0.3l4.8-12.1h5.8l-8.2,19h-5L54.9,10.1z"/>
</g>
</svg>
