<?xml version="1.0" encoding="utf-8"?>
<!-- Generator: Adobe Illustrator 25.4.1, SVG Export Plug-In . SVG Version: 6.00 Build 0)  -->
<svg version="1.1" id="Camada_1" xmlns="http://www.w3.org/2000/svg" xmlns:xlink="http://www.w3.org/1999/xlink" x="0px" y="0px"
	 viewBox="0 0 358 328" style="enable-background:new 0 0 358 328;" xml:space="preserve">
<style type="text/css">
	.st0{fill:#FFFFFF;}
</style>
<g>
	<g>
		<path d="M-0.3,181.4v-50.7H9v50.7H-0.3z"/>
		<path d="M33,145.6c2.7,0,5.2,0.5,7.4,1.4c2.2,0.9,4.2,2.2,5.8,3.8s2.9,3.6,3.8,5.8s1.4,4.7,1.4,7.4s-0.5,5.2-1.4,7.4
			s-2.2,4.2-3.8,5.8s-3.6,2.9-5.8,3.8c-2.2,0.9-4.7,1.4-7.4,1.4c-2.7,0-5.2-0.5-7.4-1.4c-2.2-0.9-4.2-2.2-5.8-3.8s-2.9-3.6-3.8-5.8
			s-1.4-4.7-1.4-7.4s0.5-5.2,1.4-7.4s2.2-4.2,3.8-5.8s3.6-2.9,5.8-3.8C27.8,146.1,30.3,145.6,33,145.6z M33,174
			c1.2,0,2.3-0.2,3.4-0.7c1.1-0.4,2.1-1.1,2.9-1.9s1.5-1.9,2-3.1c0.5-1.2,0.7-2.6,0.7-4.2s-0.2-2.9-0.7-4.2c-0.5-1.2-1.2-2.3-2-3.1
			s-1.8-1.5-2.9-1.9c-1.1-0.4-2.3-0.7-3.4-0.7c-1.2,0-2.4,0.2-3.5,0.7c-1.1,0.4-2.1,1.1-2.9,1.9s-1.5,1.9-2,3.1
			c-0.5,1.2-0.7,2.6-0.7,4.2s0.2,3,0.7,4.2c0.5,1.2,1.2,2.3,2,3.1s1.8,1.5,2.9,1.9C30.6,173.8,31.8,174,33,174z"/>
		<path d="M73.8,145.6c2.7,0,5.2,0.5,7.4,1.4c2.2,0.9,4.2,2.2,5.8,3.8s2.9,3.6,3.8,5.8s1.4,4.7,1.4,7.4s-0.5,5.2-1.4,7.4
			s-2.2,4.2-3.8,5.8s-3.6,2.9-5.8,3.8c-2.2,0.9-4.7,1.4-7.4,1.4c-2.7,0-5.2-0.5-7.4-1.4c-2.2-0.9-4.2-2.2-5.8-3.8s-2.9-3.6-3.8-5.8
			s-1.4-4.7-1.4-7.4s0.5-5.2,1.4-7.4s2.2-4.2,3.8-5.8s3.6-2.9,5.8-3.8C68.6,146.1,71.1,145.6,73.8,145.6z M73.8,174
			c1.2,0,2.3-0.2,3.4-0.7c1.1-0.4,2.1-1.1,2.9-1.9s1.5-1.9,2-3.1c0.5-1.2,0.7-2.6,0.7-4.2s-0.2-2.9-0.7-4.2c-0.5-1.2-1.2-2.3-2-3.1
			s-1.8-1.5-2.9-1.9c-1.1-0.4-2.3-0.7-3.4-0.7c-1.2,0-2.4,0.2-3.5,0.7c-1.1,0.4-2.1,1.1-2.9,1.9s-1.5,1.9-2,3.1
			c-0.5,1.2-0.7,2.6-0.7,4.2s0.2,3,0.7,4.2c0.5,1.2,1.2,2.3,2,3.1s1.8,1.5,2.9,1.9C71.4,173.8,72.6,174,73.8,174z"/>
		<path d="M97.5,146.7h8.7v4.2h0.6c0.8-1.5,2.2-2.7,4-3.8c1.8-1,4-1.6,6.7-1.6c2.2,0,4.3,0.5,6.3,1.4c2,0.9,3.8,2.2,5.3,3.8
			c1.5,1.6,2.7,3.6,3.6,5.8c0.9,2.3,1.3,4.7,1.3,7.4s-0.4,5.2-1.3,7.4c-0.9,2.3-2.1,4.2-3.6,5.8c-1.5,1.6-3.3,2.9-5.3,3.8
			c-2,0.9-4.1,1.4-6.3,1.4c-2.6,0-4.9-0.5-6.7-1.6c-1.8-1-3.1-2.3-4-3.8h-0.6l0.6,5v14.5h-9.3V146.7z M115.5,174
			c1.2,0,2.4-0.2,3.5-0.7c1.1-0.5,2.1-1.1,2.9-2s1.5-1.9,2.1-3.1c0.5-1.2,0.8-2.6,0.8-4.1c0-1.5-0.3-2.9-0.8-4.1
			c-0.5-1.2-1.2-2.3-2.1-3.1s-1.8-1.5-2.9-2c-1.1-0.5-2.3-0.7-3.5-0.7c-1.2,0-2.4,0.2-3.5,0.7c-1.1,0.4-2.1,1.1-2.9,1.9
			s-1.5,1.9-2.1,3.1c-0.5,1.2-0.8,2.6-0.8,4.2s0.3,3,0.8,4.2c0.5,1.2,1.2,2.3,2.1,3.1s1.8,1.5,2.9,1.9
			C113.1,173.8,114.3,174,115.5,174z"/>
		<path d="M144.8,142.1c-0.8,0-1.6-0.2-2.3-0.5c-0.7-0.3-1.4-0.7-1.9-1.3c-0.5-0.5-1-1.2-1.3-1.9c-0.3-0.7-0.5-1.5-0.5-2.3
			s0.2-1.6,0.5-2.3c0.3-0.7,0.7-1.3,1.3-1.9c0.5-0.5,1.2-1,1.9-1.3c0.7-0.3,1.5-0.5,2.3-0.5c1.7,0,3.1,0.6,4.2,1.7
			c1.2,1.2,1.8,2.6,1.8,4.2c0,1.7-0.6,3.1-1.8,4.2C147.9,141.5,146.5,142.1,144.8,142.1z M140.2,181.4v-34.7h9.3v34.7H140.2z"/>
		<path d="M166.7,151.3h0.6c1.1-1.7,2.5-3.1,4.4-4.1c1.8-1,3.9-1.5,6.3-1.5c2.2,0,4.1,0.4,5.7,1.1c1.7,0.7,3,1.7,4.1,3
			c1.1,1.3,1.9,2.9,2.4,4.7c0.5,1.8,0.8,3.8,0.8,6.1v21h-9.3v-19.9c0-2.5-0.6-4.4-1.7-5.6c-1.1-1.2-2.7-1.8-4.8-1.8
			c-1.3,0-2.4,0.3-3.4,0.8c-1,0.5-1.8,1.3-2.5,2.2c-0.7,0.9-1.2,2-1.6,3.3c-0.4,1.3-0.5,2.6-0.5,4v17H158v-34.7h8.7V151.3z"/>
		<path d="M214.3,197.8c-2.5,0-4.6-0.3-6.5-1c-1.9-0.6-3.6-1.5-5-2.5c-1.4-1-2.6-2.1-3.5-3.4c-0.9-1.2-1.6-2.5-2.1-3.7l8.9-3.5
			c0.7,1.8,1.7,3.3,3.3,4.3c1.5,1,3.2,1.5,5,1.5c2.9,0,5.2-1,6.9-2.8c1.7-1.9,2.5-4.5,2.5-7.8v-2.4h-0.6c-1.1,1.5-2.5,2.7-4.3,3.6
			c-1.8,0.9-3.9,1.3-6.3,1.3c-2.1,0-4.1-0.4-6.1-1.3c-2-0.8-3.7-2-5.2-3.6c-1.5-1.6-2.7-3.4-3.7-5.6c-0.9-2.2-1.4-4.7-1.4-7.4
			s0.5-5.2,1.4-7.4c0.9-2.2,2.2-4.1,3.7-5.7c1.5-1.6,3.2-2.8,5.2-3.6c2-0.8,4-1.3,6.1-1.3c2.4,0,4.5,0.4,6.3,1.3
			c1.8,0.9,3.2,2.1,4.3,3.6h0.6v-3.8h8.9v32.2c0,2.9-0.4,5.6-1.3,7.9c-0.9,2.3-2.1,4.3-3.8,5.9c-1.6,1.6-3.5,2.9-5.8,3.8
			C219.5,197.4,217,197.8,214.3,197.8z M214.6,173.1c1.1,0,2.3-0.2,3.4-0.6c1.1-0.4,2.1-1,2.9-1.8s1.5-1.8,2.1-3
			c0.5-1.2,0.8-2.5,0.8-4.1c0-1.5-0.3-2.9-0.8-4.1c-0.5-1.2-1.2-2.2-2.1-3s-1.8-1.4-2.9-1.8c-1.1-0.4-2.2-0.6-3.4-0.6
			c-1.1,0-2.2,0.2-3.3,0.6c-1.1,0.4-2.1,1-2.9,1.9s-1.5,1.8-2.1,3c-0.5,1.2-0.8,2.5-0.8,4.1c0,1.5,0.3,2.9,0.8,4.1
			c0.5,1.2,1.2,2.2,2.1,3s1.8,1.4,2.9,1.8C212.4,172.9,213.5,173.1,214.6,173.1z"/>
		<path d="M240.5,130.7h9.3v15.2l-0.6,5h0.6c0.8-1.5,2.2-2.7,4-3.8c1.8-1,4-1.6,6.7-1.6c2.2,0,4.3,0.5,6.3,1.4
			c2,0.9,3.8,2.2,5.3,3.8c1.5,1.6,2.7,3.6,3.6,5.8c0.9,2.3,1.3,4.7,1.3,7.4s-0.4,5.2-1.3,7.4c-0.9,2.3-2.1,4.2-3.6,5.8
			c-1.5,1.6-3.3,2.9-5.3,3.8c-2,0.9-4.1,1.4-6.3,1.4c-2.6,0-4.9-0.5-6.7-1.6c-1.8-1-3.1-2.3-4-3.8h-0.6v4.2h-8.7V130.7z M258.5,174
			c1.2,0,2.4-0.2,3.5-0.7c1.1-0.5,2.1-1.1,2.9-2s1.5-1.9,2.1-3.1c0.5-1.2,0.8-2.6,0.8-4.1c0-1.5-0.3-2.9-0.8-4.1
			c-0.5-1.2-1.2-2.3-2.1-3.1s-1.8-1.5-2.9-2c-1.1-0.5-2.3-0.7-3.5-0.7c-1.2,0-2.4,0.2-3.5,0.7c-1.1,0.4-2.1,1.1-2.9,1.9
			s-1.5,1.9-2.1,3.1c-0.5,1.2-0.8,2.6-0.8,4.2s0.3,3,0.8,4.2c0.5,1.2,1.2,2.3,2.1,3.1s1.8,1.5,2.9,1.9
			C256.1,173.8,257.3,174,258.5,174z"/>
		<path d="M287.8,142.1c-0.8,0-1.6-0.2-2.3-0.5c-0.7-0.3-1.4-0.7-1.9-1.3c-0.5-0.5-1-1.2-1.3-1.9c-0.3-0.7-0.5-1.5-0.5-2.3
			s0.2-1.6,0.5-2.3c0.3-0.7,0.7-1.3,1.3-1.9c0.5-0.5,1.2-1,1.9-1.3c0.7-0.3,1.5-0.5,2.3-0.5c1.7,0,3.1,0.6,4.2,1.7
			c1.2,1.2,1.8,2.6,1.8,4.2c0,1.7-0.6,3.1-1.8,4.2C290.9,141.5,289.5,142.1,287.8,142.1z M283.2,181.4v-34.7h9.3v34.7H283.2z"/>
		<path d="M304.5,154.7h-6.1v-7.9h6.1v-10.6h9.3v10.6h8.5v7.9h-8.5v13.9c0,0.8,0.1,1.6,0.2,2.3c0.2,0.7,0.5,1.3,1,1.8
			c0.7,0.8,1.6,1.2,2.8,1.2c0.8,0,1.4-0.1,1.9-0.2c0.5-0.2,0.9-0.4,1.3-0.7l2.6,8.1c-1.1,0.5-2.3,0.9-3.5,1.2
			c-1.3,0.3-2.6,0.4-4.1,0.4c-1.7,0-3.3-0.3-4.7-0.8c-1.4-0.6-2.6-1.3-3.5-2.3c-2.2-2.2-3.3-5.3-3.3-9.3V154.7z"/>
		<path d="M343.5,182.6c-2.3,0-4.3-0.3-6.1-0.8s-3.3-1.3-4.6-2.2c-1.3-0.9-2.4-2-3.3-3.2c-0.9-1.2-1.6-2.4-2.1-3.6l8.3-3.5
			c0.8,1.8,1.9,3.1,3.2,4c1.3,0.9,2.8,1.3,4.5,1.3c1.7,0,3-0.3,4-0.9c1-0.6,1.5-1.3,1.5-2.2c0-0.9-0.4-1.7-1.2-2.3
			c-0.8-0.6-2.3-1.1-4.3-1.6l-4.9-1.1c-1.1-0.2-2.2-0.6-3.4-1.1c-1.2-0.5-2.2-1.2-3.2-2c-0.9-0.8-1.7-1.8-2.3-2.9
			c-0.6-1.1-0.9-2.5-0.9-4c0-1.7,0.4-3.2,1.1-4.5c0.7-1.3,1.7-2.4,3-3.4c1.3-0.9,2.8-1.6,4.5-2.1c1.7-0.5,3.6-0.7,5.6-0.7
			c3.3,0,6.3,0.6,8.9,1.9c2.6,1.3,4.5,3.4,5.7,6.2l-8,3.3c-0.7-1.4-1.6-2.4-2.9-3c-1.3-0.6-2.5-0.9-3.8-0.9c-1.3,0-2.5,0.3-3.5,0.8
			c-1,0.5-1.5,1.2-1.5,2.1c0,0.8,0.4,1.4,1.2,1.9c0.8,0.5,1.9,0.9,3.4,1.3l5.3,1.3c3.5,0.9,6.2,2.2,7.9,4.1c1.7,1.9,2.6,4.1,2.6,6.6
			c0,1.5-0.4,3-1.1,4.3c-0.7,1.4-1.7,2.6-3,3.6c-1.3,1.1-2.9,1.9-4.7,2.5C347.7,182.2,345.7,182.6,343.5,182.6z"/>
	</g>
	<g>
		<path d="M28.1,118C47.6,56,105.7,11,174,11s126.4,45,145.9,107h10.5C310.5,50.5,247.9,1,174,1S37.5,50.5,17.6,118H28.1z"/>
		<path d="M320.2,209C301,271.5,242.7,317,174,317S47,271.5,27.8,209H17.3C36.9,277.1,99.7,327,174,327s137.1-49.9,156.7-118H320.2z
			"/>
	</g>
</g>
</svg>
